<?xml version="1.0" standalone="no"?>
<!DOCTYPE svg PUBLIC "-//W3C//DTD SVG 20010904//EN"
 "http://www.w3.org/TR/2001/REC-SVG-20010904/DTD/svg10.dtd">
<svg version="1.0" xmlns="http://www.w3.org/2000/svg"
 width="126.000000pt" height="132.000000pt" viewBox="0 0 126.000000 132.000000"
 preserveAspectRatio="xMidYMid meet">

<g transform="translate(0.000000,132.000000) scale(0.100000,-0.100000)"
fill="#000000" stroke="none">
<path d="M0 660 l0 -660 630 0 630 0 0 660 0 660 -630 0 -630 0 0 -660z m742
599 c179 -37 339 -179 399 -356 33 -96 33 -250 0 -346 -107 -314 -464 -457
-763 -306 -82 41 -186 145 -227 227 -110 218 -72 463 98 633 131 131 312 185
493 148z m435 -856 c-8 -7 -56 20 -51 28 3 5 16 1 30 -7 13 -9 23 -19 21 -21z
m-1039 15 c7 -7 12 -19 12 -27 -1 -14 -3 -13 -14 2 -18 23 -28 21 -26 -5 4
-40 0 -48 -20 -48 -21 0 -44 34 -36 53 2 7 8 2 11 -10 10 -32 37 -31 29 1 -10
41 17 61 44 34z m979 -28 c-4 -15 3 -27 23 -42 16 -12 27 -25 24 -30 -3 -5
-19 3 -36 17 -24 20 -33 23 -39 13 -4 -7 -11 -10 -14 -6 -6 6 33 68 43 68 2 0
2 -9 -1 -20z m93 0 c0 -5 -5 -10 -11 -10 -5 0 -7 5 -4 10 3 6 8 10 11 10 2 0
4 -4 4 -10z m-1030 -39 c0 -12 -63 -62 -69 -55 -6 5 50 64 61 64 4 0 8 -4 8
-9z m34 -58 c-6 -24 -5 -25 20 -21 38 8 42 -9 10 -43 -34 -36 -52 -38 -30 -4
16 24 16 25 -4 25 -18 0 -20 4 -14 23 l6 22 -26 -24 c-38 -36 -42 -19 -6 23
35 39 54 39 44 -1z m835 8 c-25 -20 -21 -47 7 -58 11 -4 24 2 36 16 11 15 18
18 18 9 0 -39 -71 -54 -90 -19 -5 11 -10 24 -10 30 0 17 40 52 51 46 5 -4 0
-14 -12 -24z m-79 -61 c-29 -22 -19 -40 11 -21 12 7 24 10 27 6 6 -6 -11 -21
-32 -28 -5 -2 -6 -9 -2 -16 6 -9 13 -9 32 4 13 8 24 11 24 6 0 -9 -50 -45 -54
-39 -28 39 -46 68 -46 75 0 11 53 43 60 37 2 -3 -6 -14 -20 -24z m-642 -10
c12 -12 22 -25 22 -29 0 -17 -31 -33 -52 -28 -12 4 -28 1 -35 -5 -20 -17 -16
9 8 48 24 40 28 41 57 14z m582 -19 c0 -5 -9 -13 -20 -16 -11 -3 -20 -13 -20
-21 0 -17 5 -17 31 -4 11 6 19 7 19 1 0 -5 -7 -12 -16 -15 -8 -3 -14 -14 -13
-23 3 -38 -3 -36 -26 7 l-23 45 31 17 c38 21 37 20 37 9z m-536 -47 c-13 -30
-13 -38 -2 -45 7 -5 16 -9 21 -9 4 0 7 -4 7 -9 0 -5 -13 -4 -30 2 -16 6 -30
14 -30 18 0 17 31 79 40 79 5 0 2 -16 -6 -36z m76 -3 c0 -27 15 -34 30 -16 7
8 17 15 23 15 6 0 -1 -13 -16 -28 -15 -15 -27 -33 -27 -40 0 -7 -4 -12 -10
-12 -5 0 -8 12 -8 28 1 15 -1 37 -6 50 -4 14 -3 22 3 22 6 0 11 -9 11 -19z
m375 -23 c1 -15 4 -30 8 -34 17 -17 5 -25 -12 -10 -22 20 -43 14 -34 -9 3 -8
1 -15 -4 -15 -6 0 -15 19 -22 41 -14 48 -5 61 39 57 20 -2 25 -9 25 -30z m-95
12 c0 -5 -11 -10 -25 -10 -36 0 -33 -30 3 -31 27 -1 27 -1 3 -8 -38 -10 -38
-31 1 -32 l33 -2 -35 -6 c-39 -7 -48 3 -49 56 -1 29 2 32 32 36 17 2 33 5 35
5 1 1 2 -2 2 -8z m-100 -15 c17 -20 6 -43 -25 -51 -14 -3 -25 -13 -25 -21 0
-8 -5 -11 -10 -8 -6 4 -10 27 -9 51 3 41 5 44 30 44 14 0 32 -7 39 -15z"/>
<path d="M590 1244 c-147 -22 -241 -67 -329 -159 -195 -203 -195 -507 -1 -710
102 -105 220 -155 371 -155 199 0 370 106 458 284 38 78 50 133 51 226 0 178
-85 335 -234 432 -86 56 -233 94 -316 82z m-2 -92 c12 -51 3 -60 -28 -27 -31
33 -41 31 -33 -5 3 -17 1 -30 -4 -30 -11 0 -25 79 -16 93 3 5 18 -4 34 -19
l29 -28 0 34 c0 42 6 36 18 -18z m94 36 c31 -24 27 -65 -7 -78 -40 -15 -55 -3
-55 46 0 39 2 44 23 44 13 0 30 -6 39 -12z m106 -14 c33 -9 27 -24 -8 -17 -34
6 -42 -12 -10 -22 11 -3 20 -11 20 -16 0 -6 -7 -6 -19 0 -18 10 -31 6 -31 -10
0 -4 12 -12 28 -18 26 -11 26 -11 -7 -6 -19 3 -36 7 -38 9 -8 8 20 86 31 86 6
0 21 -3 34 -6z m-320 -54 c35 -33 41 -46 16 -36 -24 9 -54 -3 -55 -22 -1 -30
-18 19 -18 56 -1 40 14 41 57 2z m410 8 c7 -7 12 -16 12 -22 0 -6 -5 -5 -12 2
-7 7 -18 12 -26 12 -12 0 -11 -5 3 -26 15 -23 15 -28 2 -41 -12 -12 -19 -13
-36 -4 -11 7 -21 16 -21 21 0 14 14 12 28 -2 20 -20 27 0 7 22 -9 10 -15 26
-12 35 8 18 38 20 55 3z m-521 -104 c11 -29 -14 -64 -46 -64 -34 0 -54 20 -49
52 6 46 78 55 95 12z m398 15 c68 -25 142 -95 174 -164 32 -67 40 -182 16
-245 -25 -68 -24 -71 38 -107 53 -31 56 -36 45 -56 -25 -47 -125 -134 -189
-165 -191 -91 -398 -55 -551 98 -38 38 -68 75 -66 82 3 7 30 28 61 46 56 33
56 34 43 61 -8 14 -19 52 -25 83 -29 161 62 319 218 374 57 21 171 17 236 -7z
m249 -38 c-2 -2 -13 4 -24 14 -21 19 -42 13 -22 -7 7 -7 12 -19 12 -27 -1 -13
-3 -13 -15 2 -9 13 -20 17 -34 12 -29 -9 -26 1 12 34 l32 30 22 -27 c11 -15
19 -29 17 -31z m-739 -76 c0 -16 4 -36 8 -42 11 -17 5 -16 -38 4 -38 18 -41
24 -24 54 6 13 18 19 32 17 17 -2 22 -10 22 -33z m785 21 c0 -2 -16 -24 -37
-48 -28 -33 -35 -38 -30 -19 4 17 -1 29 -20 47 l-26 24 57 0 c31 0 56 -2 56
-4z m-812 -91 c19 -5 23 -13 20 -38 -2 -26 -8 -33 -28 -35 -14 -2 -37 2 -50 7
-22 9 -20 10 17 9 23 -1 45 1 49 5 13 13 -6 35 -35 42 -17 4 -31 11 -31 16 0
6 8 8 18 5 9 -2 27 -7 40 -11z m846 -16 c8 -41 -1 -52 -34 -46 -15 3 -32 1
-39 -6 -8 -8 -11 -8 -11 0 0 7 5 15 10 18 16 10 12 38 -5 31 -8 -3 -15 -1 -15
4 0 9 48 27 76 29 6 1 14 -13 18 -30z m16 -88 c0 -6 -10 -17 -22 -25 l-21 -15
24 -20 c20 -16 21 -21 9 -26 -9 -3 -34 -1 -55 4 l-40 9 35 1 c32 1 33 2 18 18
-16 15 -16 17 0 29 15 12 13 13 -15 14 -18 0 -33 5 -33 10 0 6 23 10 50 10 28
0 50 -4 50 -9z m-850 -13 c0 -4 -7 -11 -16 -16 -9 -5 -14 -15 -10 -21 4 -6 11
-9 16 -6 5 3 11 1 15 -5 4 -6 -13 -10 -44 -10 -49 0 -51 1 -51 28 0 16 3 32 6
35 9 8 84 4 84 -5z m8 -90 c7 -7 12 -24 12 -40 0 -35 -32 -55 -65 -40 -24 11
-39 48 -24 58 5 3 9 -4 9 -15 0 -26 37 -38 57 -18 16 16 12 47 -6 47 -5 0 -11
-8 -14 -17 -4 -17 -4 -17 -12 1 -12 28 21 46 43 24z m745 -30 l-6 -33 26 24
c42 38 77 10 42 -35 -15 -18 -15 -18 -9 9 7 32 1 34 -27 6 -19 -19 -23 -20
-37 -5 -13 12 -13 20 -4 41 16 35 23 31 15 -7z"/>
<path d="M640 1166 c0 -8 -3 -21 -6 -30 -5 -12 0 -16 19 -16 26 0 45 29 32 50
-9 15 -45 12 -45 -4z"/>
<path d="M430 1110 c0 -19 3 -21 12 -12 9 9 9 15 0 24 -9 9 -12 7 -12 -12z"/>
<path d="M287 1034 c-12 -12 -8 -41 9 -54 22 -19 54 12 38 38 -12 19 -36 27
-47 16z"/>
<path d="M533 1021 c-134 -46 -222 -177 -210 -311 15 -164 142 -284 301 -285
151 0 266 91 303 240 15 60 15 70 0 130 -46 184 -222 286 -394 226z m118 -53
c12 -23 12 -23 -9 -5 -19 18 -20 18 -34 -2 -18 -25 -32 -16 -17 10 13 26 46
24 60 -3z m-66 -36 c12 -9 27 -26 35 -37 11 -13 5 -11 -21 8 -58 43 -90 31
-53 -21 8 -12 11 -22 7 -22 -19 0 -33 25 -33 57 0 28 4 33 23 33 12 0 31 -8
42 -18z m155 -7 c0 -14 -9 -34 -20 -45 -11 -11 -20 -29 -20 -39 0 -11 -14 -28
-32 -39 -29 -19 -32 -25 -29 -61 2 -27 -2 -41 -9 -41 -8 0 -10 10 -7 27 3 15
1 36 -4 46 -8 15 -5 20 21 28 17 6 35 20 41 32 10 18 9 19 -7 12 -11 -4 -34
-10 -52 -13 -25 -3 -32 -8 -28 -21 4 -9 -4 -5 -15 9 l-21 25 48 6 c86 10 121
33 112 73 -3 13 -9 13 -45 -4 -50 -22 -59 -11 -10 13 50 25 77 22 77 -8z
m-238 -142 c10 -9 18 -21 18 -26 0 -6 -6 -2 -14 8 -14 19 -15 19 -35 1 -16
-15 -21 -16 -21 -5 0 14 18 39 29 39 2 0 13 -7 23 -17z m280 0 c10 -9 18 -21
18 -26 0 -6 -6 -2 -14 8 -14 19 -15 19 -35 1 -16 -15 -21 -16 -21 -5 0 14 18
39 29 39 2 0 13 -7 23 -17z m-342 -43 c10 -5 29 -25 41 -42 l22 -33 -29 26
c-60 54 -94 57 -75 7 18 -48 60 -58 139 -33 19 6 22 4 22 -18 0 -17 -10 -31
-32 -45 -29 -19 -32 -25 -29 -61 1 -26 -2 -41 -9 -41 -8 0 -9 10 -5 30 4 19 2
36 -5 45 -10 13 -7 17 19 26 17 6 36 20 42 32 10 18 9 19 -7 12 -11 -4 -33
-10 -51 -13 -24 -3 -30 -8 -27 -21 3 -9 -3 -5 -13 9 -10 14 -28 34 -40 46 -31
29 -32 84 -2 84 11 0 29 -4 39 -10z m160 -19 c0 -16 -7 -34 -15 -41 -12 -10
-13 -6 -8 24 6 36 5 36 -21 26 -15 -5 -36 -15 -47 -20 -10 -6 -19 -7 -19 -2 0
12 61 41 88 41 18 1 22 -4 22 -28z m120 19 c10 -5 29 -25 41 -42 l22 -33 -29
26 c-64 58 -99 57 -70 -1 14 -28 14 -29 -5 -20 -13 8 -19 21 -19 45 0 29 4 35
21 35 11 0 29 -4 39 -10z m160 -20 c0 -19 -7 -33 -20 -40 -11 -6 -20 -21 -20
-34 0 -16 -11 -31 -32 -44 -29 -19 -32 -25 -29 -61 1 -26 -2 -41 -9 -41 -8 0
-9 10 -5 30 4 19 2 36 -5 45 -10 13 -7 17 19 26 17 6 36 20 42 32 10 18 9 19
-7 12 -11 -4 -34 -10 -52 -13 -25 -3 -32 -8 -27 -21 3 -9 -4 -5 -14 9 l-20 25
47 6 c84 10 119 33 110 73 -3 13 -9 13 -45 -4 -24 -10 -43 -16 -43 -11 0 11
61 40 88 40 18 1 22 -4 22 -29z"/>
<path d="M366 462 c-15 -17 -15 -20 -1 -32 9 -7 13 -15 10 -18 -2 -3 -11 1
-20 8 -9 7 -18 10 -22 7 -10 -10 18 -37 39 -37 24 0 34 26 17 47 -13 15 -12
15 9 4 27 -14 29 -1 4 23 -18 15 -20 15 -36 -2z"/>
<path d="M844 455 c-11 -29 4 -48 34 -41 24 6 25 5 10 -7 -10 -8 -18 -17 -18
-21 0 -13 21 -5 41 15 27 27 10 52 -30 43 -25 -6 -25 -6 -6 9 20 16 20 16 -3
17 -12 0 -25 -7 -28 -15z"/>
<path d="M413 404 c-31 -48 28 -89 61 -42 20 28 20 33 0 52 -22 23 -41 20 -61
-10z m45 -16 c-4 -27 -28 -36 -28 -10 0 20 8 32 22 32 5 0 8 -10 6 -22z"/>
<path d="M783 418 l-22 -11 20 -38 c19 -37 48 -56 35 -23 -5 13 -1 15 18 10
28 -7 45 9 20 18 -9 4 -14 9 -11 13 9 9 -12 43 -26 42 -7 0 -22 -5 -34 -11z
m37 -16 c0 -13 -12 -22 -22 -16 -10 6 -1 24 13 24 5 0 9 -4 9 -8z"/>
<path d="M530 371 c5 -11 10 -31 10 -45 0 -35 11 -32 38 11 24 38 23 54 -3 33
-12 -10 -16 -9 -21 4 -3 9 -13 16 -20 16 -11 0 -12 -4 -4 -19z"/>
<path d="M698 345 c-3 -48 4 -55 29 -30 11 12 19 13 28 5 26 -21 25 8 -1 39
-36 44 -51 40 -56 -14z"/>
<path d="M610 335 c0 -45 0 -45 35 -45 19 0 35 5 35 10 0 6 -11 10 -25 10 -14
0 -25 5 -25 10 0 6 9 10 20 10 27 0 25 18 -2 23 -20 4 -19 4 5 6 40 2 33 21
-8 21 -35 0 -35 0 -35 -45z"/>
<path d="M223 934 c-8 -22 15 -43 27 -24 13 21 12 27 -5 34 -9 3 -18 -1 -22
-10z"/>
<path d="M992 929 c2 -6 8 -10 13 -10 5 0 11 4 13 10 2 6 -4 11 -13 11 -9 0
-15 -5 -13 -11z"/>
<path d="M1042 828 c2 -13 8 -23 13 -23 6 0 11 10 13 23 2 15 -2 22 -13 22
-11 0 -15 -7 -13 -22z"/>
<path d="M176 723 c-9 -22 10 -41 25 -26 13 13 5 43 -10 43 -5 0 -12 -8 -15
-17z"/>
<path d="M297 223 c-14 -13 -6 -33 13 -33 11 0 20 4 20 9 0 13 -26 32 -33 24z"/>
<path d="M783 153 c-23 -9 -15 -35 10 -31 12 2 22 9 22 17 0 16 -14 22 -32 14z"/>
<path d="M580 115 c0 -8 9 -15 20 -15 11 0 20 7 20 15 0 8 -9 15 -20 15 -11 0
-20 -7 -20 -15z"/>
</g>
</svg>
